name processed_emg_signals
nRows=83
nColumns=7
 
endheader
time	LGLTMED	LRF	LADDLONG	LBF	LTA	LGM
1.8778000000000015	0.0020613540869412	0.0102703174322732	0.0054937635742755	0.0094760333784809	0.8735523023242319	0.001821334808398
1.8878000000000015	0.0020710252770532	0.0102682523363304	0.0054895550591364	0.009460094050917	0.8680882976538039	0.0018103881089939
1.8978000000000015	0.0020817316191281	0.0102648990511455	0.0054850177819357	0.009441847715984	0.8625528855753712	0.0017992980238821
1.9078000000000015	0.0020934238392492	0.010260238149694	0.0054801478174885	0.0094213015502498	0.856951755009329	0.001788076437894
1.9178000000000015	0.0021060522890824	0.0102542552121144	0.0054749418022003	0.0093984671042555	0.8512908032208577	0.0017767355859106
1.9278000000000015	0.0021195670383124	0.0102469407643578	0.0054693969434338	0.009373360256229	0.8455761292534711	0.0017652880378877
1.9378000000000015	0.0021339179663443	0.0102382902040009	0.0054635110279948	0.0093460011557811	0.8398140269336085	0.0017537466832221
1.9478000000000015	0.0021490548531281	0.0102283037136676	0.0054572824296607	0.0093164141578026	0.8340109774375686	0.0017421247144569
1.9578000000000015	0.0021649274689664	0.0102169861625322	0.0054507101156759	0.0092846277468265	0.8281736414144871	0.0017304356103256
1.9678000000000015	0.0021814856631674	0.0102043469964079	0.0054437936521339	0.0092506744521587	0.8223088506612116	0.0017186931181431
1.9778000000000016	0.0021986794514072	0.0101904001169632	0.0054365332081673	0.0092145907541191	0.8164235993469301	0.0017069112355487
1.9878000000000016	0.002216459101671	0.0101751637506493	0.0054289295588723	0.0091764169817461	0.8105250347875852	0.0016951041916142
1.9978000000000016	0.0022347752186454	0.0101586603079533	0.0054209840868874	0.0091361972023328	0.804620447772312	0.001683286427331
2.007800000000002	0.0022535788264431	0.0101409162336203	0.0054126987825519	0.0090939791031742	0.7987172624458312	0.0016714725754899
2.0178000000000016	0.0022728214495435	0.0101219618485017	0.0054040762425647	0.0090498138659307	0.7928230257516694	0.0016596774399682
2.027800000000002	0.0022924551918306	0.010101831183695	0.0053951196670683	0.0090037560340321	0.7869453964419644	0.0016479159744368
2.0378000000000016	0.0023124328136119	0.0100805618076399	0.0053858328551025	0.0089558633735643	0.781092133661397	0.0016362032605031
2.047800000000002	0.0023327078064965	0.0100581946468214	0.0053762201983927	0.0089061967280955	0.7752710851154174	0.0016245544853025
2.0578000000000016	0.0023532344660146	0.010034773800721	0.0053662866734616	0.008854819867899	0.7694901748352642	0.0016129849185588
2.067800000000002	0.0023739679618614	0.0100103463516389	0.005356037832077	0.0088017993340356	0.7637573905536654	0.0016015098891291
2.0778000000000016	0.0023948644056516	0.0099849621700005	0.005345479790065	0.0087472042777449	0.7580807707057333	0.0015901447610511
2.087800000000002	0.0024158809160783	0.0099586737157557	0.0053346192145311	0.0086911062955865	0.7524683910702032	0.0015789049091136
2.0978000000000017	0.0024369756813671	0.0099315358364827	0.0053234633095518	0.0086335792607531	0.7469283510672126	0.0015678056939732
2.107800000000002	0.0024581080189229	0.0099036055628045	0.0053120198004038	0.0085746991509639	0.7414687597301528	0.0015568624368446
2.1178000000000017	0.0024792384320629	0.0098749419017192	0.005300296916404	0.0085145438733304	0.7360977213701898	0.0015460903937968
2.127800000000002	0.0025003286637326	0.0098456056284254	0.0052883033724283	0.0084531930865723	0.7308233209526496	0.0015355047296866
2.1378000000000017	0.0025213417470985	0.0098156590772073	0.0052760483491797	0.0083907280209584	0.7256536092052938	0.0015251204917652
2.147800000000002	0.0025422420529189	0.0097851659319203	0.0052635414722764	0.0083272312963392	0.7205965874803552	0.0015149525829971
2.1578000000000017	0.0025629953335969	0.0097541910165989	0.0052507927902369	0.0082627867386349	0.7156601923950611	0.0015050157351325
2.1678000000000015	0.0025835687638336	0.009722800086688	0.0052378127514436	0.0081974791951273	0.7108522802782641	0.0014953244815814
2.1778000000000017	0.0026039309778052	0.0096910596213738	0.0052246121801613	0.0081313943489035	0.7061806114530855	0.0014858931301397
2.187800000000002	0.0026240521027996	0.0096590366174646	0.0052112022516864	0.0080646185327911	0.7016528343872195	0.0014767357356193
2.1978000000000018	0.0026439037892484	0.0096267983852511	0.005197594466692	0.0079972385431326	0.6972764697442594	0.0014678660724371
2.2078000000000015	0.0026634592370927	0.0095944123467598	0.0051838006248298	0.0079293414537481	0.6930588943714189	0.0014592976072197
2.2178000000000018	0.0026826932184238	0.0095619458368181	0.0051698327976476	0.0078610144304398	0.6890073252614953	0.0014510434714851
2.227800000000002	0.0027015820963346	0.0095294659073457	0.005155703300886	0.0077923445463977	0.685128803529866	0.0014431164344671
2.237800000000002	0.0027201038399249	0.0094970391352788	0.0051414246662199	0.0077234185988639	0.6814301784502699	0.0014355288761552
2.2478000000000016	0.0027382380353992	0.0094647314345144	0.0051270096125199	0.0076543229274204	0.6779180915953198	0.0014282927606233
2.257800000000002	0.002755965893203	0.0094326078722338	0.0051124710167009	0.0075851432342621	0.6745989611287789	0.0014214196097266
2.267800000000002	0.0027732702511478	0.009400732489946	0.0050978218842265	0.0075159644068185	0.6714789662969928	0.0014149204772424
2.277800000000002	0.0027901355734859	0.009369168129572	0.0050830753193349	0.0074468703430863	0.6685640321670036	0.0014088059235328
2.2878000000000016	0.0028065479459147	0.0093379762648838	0.0050682444950589	0.0073779437800293	0.6658598146590154	0.0014030859908071
2.297800000000002	0.0028224950665147	0.0093072168385966	0.0050533426231195	0.0073092661253964	0.6633716859209985	0.0013977701790632
2.307800000000002	0.0028379662326427	0.0092769481054036	0.0050383829237775	0.0072409172933102	0.6611047200930543	0.0013928674227844
2.317800000000002	0.0028529523238251	0.0092472264812221	0.005023378595732	0.0071729755439719	0.6590636795085151	0.0013883860684706
2.3278000000000016	0.002867445780715	0.0092181063989036	0.0050083427861573	0.0071055173278289	0.657253001377683	0.0013843338530788
2.337800000000002	0.0028814405801996	0.0091896401706376	0.0049932885609717	0.0070386171345347	0.6556767849988034	0.0013807178834465
2.347800000000002	0.0028949322067665	0.0091618778572654	0.0049782288754364	0.0069723473470189	0.6543387795392938	0.0013775446167668
2.357800000000002	0.0029079176202487	0.0091348671447028	0.0049631765451754	0.0069067781009657	0.6532423724284181	0.0013748198421825
2.3678000000000017	0.0029203952200799	0.0091086532276663	0.0049481442177087	0.0068419771499892	0.6523905784005566	0.0013725486635617
2.377800000000002	0.0029323648061967	0.0090832787008941	0.0049331443445847	0.0067780097367871	0.6517860292260883	0.0013707354835108
2.387800000000002	0.0029438275367321	0.0090587834580605	0.0049181891541992	0.0067149384705542	0.6514309641647346	0.0013693839886819
2.397800000000002	0.0029547858826572	0.009035204598578	0.0049032906253913	0.0066528232109345	0.6513272211739978	0.0013684971364241
2.4078000000000017	0.0029652435795396	0.0090125763424758	0.0048884604619111	0.0065917209587774	0.6514762289030837	0.0013680771428258
2.417800000000002	0.0029752055766038	0.0089909299535343	0.0048737100678511	0.0065316857539457	0.6518789995004365	0.0013681254721925
2.427800000000002	0.0029846779832834	0.0089702936708421	0.0048590505241282	0.0064727685804042	0.6525361222606905	0.0013686428279989
2.437800000000002	0.0029936680134667	0.0089506926489235	0.0048444925660935	0.0064150172787909	0.6534477581344751	0.0013696291453493
2.4478000000000018	0.003002183927638	0.00893214890656	0.0048300465623383	0.0063584764666552	0.6546136351220931	0.0013710835849792
2.457800000000002	0.003010234973132	0.0089146812844088	0.0048157224947547	0.0063031874665231	0.656033044569682	0.0013730045288234
2.467800000000002	0.0030178313227221	0.0088983054115003	0.0048015299399093	0.0062491882419361	0.6577048383840529	0.0013753895771739
2.477800000000002	0.0030249840117745	0.0088830336806759	0.0047874780517861	0.0061965133415888	0.6596274271799937	0.0013782355474456
2.487800000000002	0.0030317048741997	0.0088688752330124	0.0047735755459523	0.0061451938516733	0.6617987793714053	0.001381538474562
2.497800000000002	0.00303800647743	0.0088558359512539	0.0047598306851973	0.0060952573565223	0.6642164212151904	0.0013852936129707
2.5078000000000022	0.003043902056647	0.0088439184622503	0.004746251266689	0.0060467279076232	0.6668774378143953	0.0013894954402919
2.517800000000002	0.0030494054484739	0.008833122148374	0.0047328446106797	0.00599962600106	0.6697784750847018	0.001394137662602
2.527800000000002	0.0030545310243458	0.00882344316786	0.0047196175507863	0.0059539685634199	0.6729157426859765	0.0013992132213464
2.537800000000002	0.0030592936237598	0.0088148744839924	0.0047065764258541	0.0059097689461872	0.676285017918237	0.0014047143018786
2.5478000000000023	0.0030637084876012	0.0088074059030396	0.0046937270734072	0.0058670369286263	0.6798816505790828	0.0014106323436133
2.557800000000002	0.0030677911917328	0.0088010241208217	0.0046810748246753	0.005825778729141	0.6837005687773663	0.0014169580517808
2.567800000000002	0.0030715575810263	0.0087957127777787	0.0046686245011885	0.0057859970250772	0.687736285695559	0.0014236814107667
2.577800000000002	0.0030750237040034	0.0087914525223834	0.0046563804129261	0.005747690980919	0.6919829072908114	0.0014307916990145
2.5878000000000023	0.0030782057482494	0.0087882210827166	0.0046443463580116	0.0057108562848127	0.696434140922143	0.001438277505466
2.597800000000002	0.0030811199767511	0.008785993345997	0.0046325256239475	0.005675485193336	0.7010833048885825	0.0014461267475104
2.607800000000002	0.0030837826653082	0.0087847414458251	0.0046209209903881	0.0056415665844186	0.705923338860464	0.0014543266904048
2.617800000000002	0.0030862100411592	0.0087844348568841	0.004609534733445	0.0056090860183071	0.710946815183496	0.0014628639681311
2.6278000000000024	0.0030884182229608	0.0087850404968137	0.0045983686315255	0.0055780258064509	0.716145951032626	0.001471724605643
2.637800000000002	0.0030904231622496	0.0087865228349657	0.0045874239727014	0.0055483650881741	0.7215126213900789	0.0014808940424581
2.647800000000002	0.0030922405865111	0.00878884400773	0.004576701563611	0.0055200799149797	0.7270383728193163	0.0014903571575408
2.657800000000002	0.0030938859439702	0.0087919639401018	0.0045662017398905	0.0054931433423203	0.7327144380040937	0.0015000982954204
2.6678000000000024	0.0030953743502104	0.0087958404731351	0.0045559243781354	0.0054675255286511	0.7385317510193486	0.0015101012934843
2.677800000000002	0.0030967205367203	0.0088004294969016	0.0045458689093782	0.0054431938415662	0.7444809632983467	0.0015203495103827
2.687800000000002	0.0030979388014537	0.0088056850885437	0.0045360343340678	0.005420112970806	0.7505524602582845	0.0015308258554789
2.697800000000002	0.003099042961481	0.0088115596549816	0.0045264192385292	0.005398245047905	0.7567363785442838	0.0015415128192774
